<svg t="1587552407768" class="icon" viewBox="0 0 1365 1024" version="1.1" xmlns="http://www.w3.org/2000/svg" p-id="3539" width="128" height="128"><path d="M938.666667 85.333333v170.666667a42.666667 42.666667 0 1 1-85.333334 0V85.333333H213.333333a128 128 0 0 0-128 128v597.333334a128 128 0 0 0 128 128h640v-170.666667a42.666667 42.666667 0 1 1 85.333334 0v170.666667h213.333333a128 128 0 0 0 128-128v-89.6c-97.365333-19.776-170.666667-105.856-170.666667-209.066667 0-103.210667 73.301333-189.290667 170.666667-209.066667V213.333333a128 128 0 0 0-128-128H938.666667z m384 298.666667a128 128 0 1 0 0 256 42.666667 42.666667 0 0 1 42.666666 42.666667v128c0 117.824-95.509333 213.333333-213.333333 213.333333H213.333333C95.509333 1024 0 928.490667 0 810.666667V213.333333C0 95.509333 95.509333 0 213.333333 0h938.666667c117.824 0 213.333333 95.509333 213.333333 213.333333v128a42.666667 42.666667 0 0 1-42.666666 42.666667z m-469.333334 42.666667a42.666667 42.666667 0 1 1 85.333334 0v170.666666a42.666667 42.666667 0 1 1-85.333334 0v-170.666666z" p-id="3540"></path></svg>
