<svg t="1587552452675" class="icon" viewBox="0 0 1024 1024" version="1.1" xmlns="http://www.w3.org/2000/svg" p-id="4427" width="128" height="128"><path d="M511.602218 541.281848a230.376271 230.376271 0 1 0 0-460.752543 230.376271 230.376271 0 0 0 0 460.752543zM511.960581 0a307.168362 307.168362 0 0 1 155.63197 572.049879c188.806153 56.826147 330.615547 215.939358 356.059326 413.551004 2.406152 18.788465-11.570008 35.836309-31.228783 38.140072-19.60758 2.303763-37.525735-11.006866-39.931887-29.795331-27.645153-214.505906-213.430817-376.025269-438.73881-376.02527-226.536667 0-414.728483 161.826532-442.322441 376.02527-2.406152 18.788465-20.324307 32.099094-39.931887 29.795331-19.658775-2.303763-33.634936-19.351607-31.228783-38.140072 25.392585-196.79253 167.969899-355.700963 357.08322-413.039057A307.168362 307.168362 0 0 1 511.960581 0z" p-id="4428"></path></svg>
